<svg width="24" height="24" fill="none" xmlns="http://www.w3.org/2000/svg"><g clip-path="url(#clip0_44_75)"><path d="M23.25 12C23.25 5.787 18.213.75 12 .75 5.948.75 1.014 5.53.762 11.52l-.006.222c-.002.086-.006.172-.006.258v.038C.75 18.23 5.787 23.25 12 23.25s11.25-5.02 11.25-11.212V12zm-9.004 10.257c-.197-.107-.386-.282-.463-.52-.139-.433-.031-.768.129-1.158.127-.313-.044-.673.04-1 .166-.637.366-1.326.304-2.01-.038-.42-.131-.439-.442-.68-.327-.258-.327-.621-.546-.946-.199-.295.335-1.416.187-1.484-.167-.077-.547.023-.667-.136-.129-.172-.219-.375-.396-.508-.114-.086-.62-.373-.755-.353-.68.102-1.417-.561-1.85-.994-.3-.296-.424-.629-.643-.972-.185-.29-.466-.316-.603-.676-.145-.377-.059-.859-.103-1.255-.047-.425-.259-.561-.523-.887-.566-.698-.774-1.74-1.847-1.74-.576 0-.535 1.255-1 1.086-.524-.19-1.337.71-1.325.588.061-.628.706-.933.769-1.12.206-.614-.92-.467-.775-.98.07-.251.786-.435.638-.585-.045-.046-.592-.43-.565-.45.101-.07.543.155.447-.138-.032-.098-.084-.187-.134-.278.228-.258.468-.505.72-.74.38-.031.775-.008.918.02.906.178 1.22.637 2.127.298.435-.163 2.042.12 2.272.576.125.25.592-.151.774-.178.195-.03.635.271.77.087.353-.484-.227-.685.458-.312.46.25 1.357-.85 1.073.442-.205.932-.959.953-1.512 1.56-.544.598 1.077.76 1.118 1.3.12 1.555.95-.126.728-.679-.43-1.07.488-.776.858-.096.205.377.361.06.612-.072.204-.106.258.468.302.569.145.332.619.432.539.86-.09.472-.425.33-.753.41-.367.089.059.397.006.51-.058.123-.5.174-.617.244-.347.204-.135.601-.406.815-.186.147-.374.051-.41.327-.042.324-.64.428-.562.739.021.085.193.72.085.754-.05.017-.444-.553-.552-.61-.213-.113-1.181-.02-1.305.62-.081.415.586 1.07.755.498.21-.702.311.41.26.453.1.088.689-.144.514.263-.073.172.073.62.334.482.109-.058.39.117.44.023a.803.803 0 01.278-.26c.263-.153.656-.009.944.008.176.01 1.617.797 1.625.955.032.59 1.121.513 1.289.724.45.573.31.282-.017 1.015-.166.37-.022.822-.422 1.09-.193.127-.428.063-.6.245-.154.164-.093.36-.187.549-.113.225-1.63 1.588-1.73 1.918-.05.165-.502.31-.12.468.222.065-.492.74-.149 1.02.084.067.138.124.18.176-.172.045-.342.087-.514.125zm-.898-20.668c-.015.054.007.118.101.181.213.14-.06.453-.353.252-.292-.202-.95.09-.904.241.045.151.248.211.561.09.313-.12.442.019.494.162.036.097 0 .151-.01.282-.01.131-.373.04-.676.06-.303.021-.626-.06-.617-.231.01-.171-.323-.484-.522-.614-.198-.13.087-.413.35-.202.263.212.273-.04.576-.12.172-.046.103-.114.045-.18.322.012.64.039.955.079zm1.319 3.326c.226.061.62.348.62.484s-.178.306-.257.287c-.571-.14-1.053-.703-1.318-1.012-.463-.538-.434-.077-1.167-.31-.187-.06-.485-.641-.288-.928.197-.287.424-.332.606-.256.181.075.712-.242.834.136.12.377.454.86.757.988.304.128-.015.55.213.61zm.181 1.752c.091.181-.545-.211-.697-.393-.15-.18-.378-.589-.196-.77.182-.18.589.377.803.499.424.242 0 .483.09.664zm-3.222-2.743c.044-.06.137.09.22.242.082.151-.032.364-.22.332-.188-.032-.106-.426 0-.574zm0-1.52s.177.433 0 .363c-.178-.07-.186-.252 0-.362zm.036 1.37c-.05-.121-.063-.616.06-.766.182-.221.475.212.278.383-.197.171-.288.503-.338.382zm-2.28.53c-.329-.024-.336-.309-.382-.46-.045-.151-.318.287-.594 0-.276-.287.064-.664.003-.89-.06-.227.651 0 .758 0 .106 0 .394.467.47.46.075-.008.484.37.484.218 0-.15.063-.408.349-.438.44-.045.045.484.03.69-.015.205.334.563.462.715.129.15-.325.257-.401.166-.076-.091-.273 0-.44.12-.166.121-.62-.166-.833-.256-.212-.09.425-.302.095-.325zm1.179-2.383c.293.101.46.191.603 0 .14-.184.245.403.145.563-.102.162-.293.122-.324 0-.03-.12-.717-.664-.424-.563zm.424 1.822c-.1-.131-.11-.282 0-.392.111-.111.075-.242.273-.282.098-.02.11.13.11.272 0 .14.122.322 0 .542-.12.221-.282-.01-.383-.14zm.827-2.238c-.005.028-.023.044-.07.04a.224.224 0 01-.088-.036l.158-.004zM9.52 1.93c.232 0 .202.157.394.27.192.112.09-.582.222-.32.131.261.52.624.333.694-.16.06-.837.322-.898.277-.06-.045-.141-.236-.303-.277-.162-.04-.334-.423-.445-.413-.043.004-.046-.069-.019-.165.195-.063.392-.12.59-.171.022.06.055.105.126.105zm5.07 11.26c-.242.25-.659-.174-.947-.16-.287.016-.432-.286-.681-.256-.25.03.068-.318.416-.136.348.181 1.409.347 1.212.552zm4.848-8.6c-.07.09-.15.152-.227.219-.227.196-.651.181-.712.317-.06.136-.212.558-.743.56-.53.002-.378.8-.424 1.027-.045.228-.166.497-.318.3-.151-.196-.212-.12-.68-.695-.47-.573-.29-.89-.138-1.056.152-.166.213-.559 0-.499-.212.06-.333-.075-.288-.263.046-.188.273-.325 0-.526-.272-.2-.121-.917-.333-1.57-.212-.655-.5-.192-.97-.167-.47.025-.545-.327-.333-.489a10.48 10.48 0 015.166 2.841z" fill="#FD5252"/></g><defs><clipPath id="clip0_44_75"><path fill="#fff" d="M0 0h24v24H0z"/></clipPath></defs></svg>