<svg width="24" height="22" fill="none" xmlns="http://www.w3.org/2000/svg"><path d="M15.712 8.021a1.5 1.5 0 011.49 1.326l.01.174v6.552a5.226 5.226 0 01-10.446.285l-.007-.285V9.521a1.5 1.5 0 011.326-1.49l.174-.01h7.453zm-10.05 0a2.98 2.98 0 00-.39 1.23l-.013.27v6.552l.007.315c.045.964.293 1.875.702 2.692a4.284 4.284 0 01-5.935-3.698l-.008-.252V9.52A1.5 1.5 0 011.35 8.03l.175-.01h4.137zm12.648 0h4.176a1.5 1.5 0 011.49 1.326l.01.174v5.61a4.285 4.285 0 01-5.976 3.936c.403-.81.638-1.692.69-2.595l.012-.399V9.521l-.009-.223a2.98 2.98 0 00-.393-1.277zM11.983.484a3.341 3.341 0 110 6.682 3.341 3.341 0 010-6.682zm7.48.942a2.87 2.87 0 110 5.74 2.87 2.87 0 010-5.74zm-14.938 0a2.87 2.87 0 110 5.74 2.87 2.87 0 010-5.74z" fill="#FD5252"/></svg>