<svg width="24" height="24" fill="none" xmlns="http://www.w3.org/2000/svg"><g clip-path="url(#clip0_29_255)"><path d="M12 .48C5.638.48.48 5.638.48 12c0 6.362 5.158 11.52 11.52 11.52 6.362 0 11.52-5.158 11.52-11.52C23.52 5.638 18.362.48 12 .48zm4.686 9.437c.005.098.006.197.006.293 0 3-2.281 6.457-6.455 6.457a6.403 6.403 0 01-3.477-1.02c.176.021.357.03.54.03a4.544 4.544 0 002.818-.971A2.274 2.274 0 018 13.132c.34.064.69.05 1.024-.04a2.27 2.27 0 01-1.82-2.225v-.027c.305.169.656.272 1.028.284a2.268 2.268 0 01-.702-3.031 6.451 6.451 0 004.676 2.372 2.27 2.27 0 013.867-2.07c.507-.1.994-.287 1.44-.55a2.28 2.28 0 01-.998 1.256 4.56 4.56 0 001.304-.359 4.602 4.602 0 01-1.132 1.175z" fill="#fff" fill-opacity=".45"/></g><defs><clipPath id="clip0_29_255"><path fill="#fff" d="M0 0h24v24H0z"/></clipPath></defs></svg>